<?xml version="1.0" encoding="UTF-8"?>
<svg version="1.1" xmlns="http://www.w3.org/2000/svg" width="1181" height="1181">
<path d="M0 0 C1.22828018 -0.00705963 2.45656036 -0.01411926 3.72206116 -0.02139282 C7.6597777 -0.03889372 11.59740891 -0.04608468 15.53515625 -0.046875 C16.5430722 -0.04731686 16.5430722 -0.04731686 17.5713501 -0.04776764 C37.73749897 -0.04919533 57.61315643 0.1966779 77.59765625 3.203125 C79.04263065 3.41463672 80.48761831 3.62605789 81.93261719 3.83740234 C101.04202239 6.66681749 119.93757766 10.1503369 138.59765625 15.203125 C139.57524902 15.46706055 140.5528418 15.73099609 141.56005859 16.00292969 C207.83858872 34.14094823 268.98934466 65.98493207 321.59765625 110.203125 C322.11328125 110.63383301 322.62890625 111.06454102 323.16015625 111.50830078 C338.845263 124.63625422 354.51641402 138.54039659 367.8046875 154.1328125 C369.92912449 156.5858661 372.13954262 158.95015647 374.34765625 161.328125 C379.6433972 167.13739234 384.47888848 173.24824865 389.26708984 179.47851562 C390.50858585 181.08767669 391.76544279 182.68495398 393.0234375 184.28125 C453.09697646 260.97087421 488.82661537 358.71700137 488.63671875 524.15234375 C477.15153418 616.79873819 441.70783328 703.30663874 381.59765625 775.203125 C381.16259766 775.72455078 380.72753906 776.24597656 380.27929688 776.78320312 C366.52834809 793.21064124 351.89547627 809.66620074 335.53125 823.546875 C333.2942869 825.46298077 331.13962047 827.45825356 328.97265625 829.453125 C323.32031788 834.55148228 317.36308763 839.21155254 311.33837891 843.85644531 C309.72345414 845.10580366 308.11906932 846.36875373 306.515625 847.6328125 C290.66076883 860.04804005 274.05971958 871.18056225 256.59765625 881.203125 C255.42541504 881.87601563 255.42541504 881.87601563 254.22949219 882.5625 C244.5336731 888.09599306 234.70752311 893.32382651 224.66357422 898.19677734 C222.53251164 899.23485817 220.41105133 900.29116863 218.2890625 901.34765625 C162.20429822 928.94279632 96.25529036 945.18698602 33.63671875 945.40625 C32.33028412 945.41195007 31.02384949 945.41765015 29.67782593 945.42352295 C26.91965357 945.43394362 24.16150949 945.43984086 21.40332031 945.44335938 C18.64829892 945.44769205 15.89359993 945.46139591 13.13867188 945.484375 C-84.94554849 946.28464995 -181.82506505 914.40847398 -289.40234375 835.203125 C-289.91796875 834.77241699 -290.43359375 834.34170898 -290.96484375 833.89794922 C-306.6499505 820.76999578 -322.32110152 806.86585341 -335.609375 791.2734375 C-337.73381199 788.8203839 -339.94423012 786.45609353 -342.15234375 784.078125 C-347.4480847 778.26885766 -352.28357598 772.15800135 -357.07177734 765.92773438 C-358.31327335 764.31857331 -359.57013029 762.72129602 -360.828125 761.125 C-414.80709826 692.21567243 -446.03648353 609.61028009 -456.40234375 523.203125 C-456.53511719 522.11563965 -456.66789062 521.0281543 -456.8046875 519.90771484 C-460.49009011 488.04865157 -460.15453995 454.03463979 -456.40234375 422.203125 C-456.17635498 420.26131348 -456.17635498 420.26131348 -455.94580078 418.28027344 C-452.02716712 385.4271918 -444.9063305 353.57667977 -434.40234375 322.203125 C-433.82290834 320.42838814 -433.24348062 318.65364876 -432.6640625 316.87890625 C-417.97607198 272.74075292 -395.48474488 230.23714559 -367.40234375 193.203125 C-366.94633789 192.59694336 -366.49033203 191.99076172 -366.02050781 191.36621094 C-360.33926051 183.82321764 -354.45833558 176.44850966 -348.40234375 169.203125 C-347.97260254 168.6870166 -347.54286133 168.1709082 -347.10009766 167.63916016 C-334.62963824 152.70760184 -321.42753368 137.85143971 -306.64453125 125.16796875 C-304.48070834 123.27179641 -302.3770793 121.32010369 -300.27758789 119.35327148 C-293.89058831 113.39241834 -287.20578738 107.94854528 -280.26953125 102.64208984 C-278.39353833 101.19633902 -276.5374903 99.72785056 -274.68359375 98.25390625 C-200.29973146 39.58284177 -102.04896542 1.62046687 0 0 Z " fill="#3566A5" transform="translate(574.40234375,117.796875)"/>
<path d="M0 0 C2.16809612 -0.00322068 4.33619203 -0.00658533 6.50428772 -0.01008606 C11.00799058 -0.01602337 15.51167437 -0.017931 20.01538086 -0.01733398 C25.79575695 -0.01723134 31.57601302 -0.03101195 37.35636044 -0.04810619 C41.81458608 -0.05918399 46.27278197 -0.06125469 50.73101997 -0.06072426 C52.86455267 -0.0619058 54.99808609 -0.06633732 57.13160515 -0.07405663 C60.09425486 -0.08379376 63.05663355 -0.08100622 66.01928711 -0.07495117 C66.90176117 -0.08057068 67.78423523 -0.08619019 68.69345093 -0.09197998 C74.74432349 -0.06036401 74.74432349 -0.06036401 76.97265625 2.16796875 C77.22433853 4.07674313 77.22433853 4.07674313 77.22662354 6.45042419 C77.23226318 7.34915253 77.23790283 8.24788086 77.24371338 9.17384338 C77.23764069 10.65678139 77.23764069 10.65678139 77.23144531 12.16967773 C77.23670227 13.72833557 77.23670227 13.72833557 77.24206543 15.31848145 C77.25089662 18.76707563 77.24502822 22.21546608 77.23828125 25.6640625 C77.2396276 28.052984 77.24156788 30.44190524 77.24407959 32.83082581 C77.24703282 37.84370526 77.24272717 42.85651356 77.23339844 47.86938477 C77.22201 54.30364625 77.22855835 60.73774078 77.24054337 67.17199612 C77.24776182 72.10725671 77.24547398 77.04247756 77.24028778 81.97773933 C77.23895093 84.35047487 77.24060024 86.72321399 77.24524689 89.09594536 C77.25031113 92.40968285 77.24260283 95.72314808 77.23144531 99.03686523 C77.23549377 100.02346634 77.23954224 101.01006744 77.24371338 102.02656555 C77.23807373 102.92811371 77.23243408 103.82966187 77.22662354 104.75852966 C77.22549246 105.93406733 77.22549246 105.93406733 77.22433853 107.13335323 C76.97265625 109.16796875 76.97265625 109.16796875 74.97265625 112.16796875 C72.48763006 112.46872996 70.24785045 112.57443407 67.76000977 112.55273438 C67.01660843 112.55810715 66.27320709 112.56347992 65.50727844 112.5690155 C63.88892278 112.57881444 62.27051445 112.58173128 60.65213203 112.57865906 C58.08211912 112.5741849 55.51279645 112.58817434 52.94285583 112.60705566 C47.47363422 112.64391001 42.00448369 112.65753499 36.53515625 112.66796875 C30.22615197 112.68008084 23.917481 112.70192192 17.60862541 112.74797058 C15.09226373 112.7614341 12.57633469 112.75738673 10.05995178 112.75256348 C-4.4494851 112.80244035 -15.97716627 115.09111224 -27.09765625 125.015625 C-39.06441169 137.62993214 -39.33461311 153.84385225 -39.22265625 170.2109375 C-39.21891791 171.83189213 -39.21607482 173.45284905 -39.21408081 175.07380676 C-39.20650894 179.30370517 -39.18691725 183.53346237 -39.16467285 187.76330566 C-39.14407412 192.09413748 -39.13504934 196.42499251 -39.125 200.75585938 C-39.10366411 209.22662671 -39.06960783 217.69728008 -39.02734375 226.16796875 C-38.44681559 226.17220069 -37.86628742 226.17643263 -37.2681675 226.18079281 C-23.15568433 226.28400747 -9.04325153 226.39263135 5.0691433 226.50730801 C11.89373425 226.56263327 18.71833043 226.61611412 25.54296875 226.6652832 C32.12413001 226.71270327 38.70523761 226.76522316 45.28633499 226.8209095 C47.8022288 226.8413534 50.31813729 226.86006305 52.83405685 226.87704277 C56.34694501 226.90104175 59.85973126 226.93110245 63.37255859 226.96264648 C64.4220015 226.96840195 65.4714444 226.97415741 66.5526886 226.98008728 C67.50623734 226.9898761 68.45978607 226.99966492 69.44223022 227.00975037 C70.68941613 227.01942919 70.68941613 227.01942919 71.96179771 227.02930355 C73.97265625 227.16796875 73.97265625 227.16796875 75.97265625 228.16796875 C75.69873398 235.55017381 74.77441358 242.58758598 73.3046875 249.80859375 C71.32803726 259.85300707 69.67686637 269.93959184 68.0625 280.046875 C67.80432863 281.65522973 67.54601681 283.26356192 67.28756714 284.87187195 C66.21974068 291.52369314 65.15401949 298.17580417 64.10620117 304.83081055 C63.45653717 308.9544519 62.79579074 313.07618505 62.12771797 317.19688225 C61.877581 318.75312291 61.63159526 320.31003696 61.38993645 321.86761665 C61.05421973 324.02889434 60.70442837 326.18745327 60.35131836 328.34594727 C60.05964027 330.18286888 60.05964027 330.18286888 59.7620697 332.05690002 C58.47871362 337.11459059 58.47871362 337.11459059 55.97265625 339.16796875 C52.93681017 339.57295009 50.25765621 339.72170327 47.21850586 339.69799805 C46.32395187 339.70672943 45.42939789 339.71546082 44.50773621 339.72445679 C41.54662156 339.74888283 38.58620275 339.74541884 35.625 339.7421875 C33.57140405 339.75462629 31.51781876 339.76895873 29.46424866 339.78511047 C24.0546551 339.82320223 18.6452448 339.83833573 13.23553467 339.84790039 C4.57237356 339.86761722 -4.09064726 339.92438506 -12.7536602 339.97666359 C-15.78606764 339.99205335 -18.81840567 339.99920941 -21.85084534 340.00480652 C-23.70142654 340.01182058 -25.55200741 340.01892133 -27.40258789 340.02612305 C-28.25095215 340.02559433 -29.09931641 340.02506561 -29.97338867 340.02452087 C-34.13344104 339.93562797 -34.13344104 339.93562797 -38.02734375 341.16796875 C-38.02823938 342.23213914 -38.02823938 342.23213914 -38.02915311 343.31780791 C-38.06502379 385.33756844 -38.12162687 427.35725631 -38.2052647 469.37695025 C-38.21528252 474.4189431 -38.22512659 479.46093628 -38.23486328 484.50292969 C-38.23777534 486.00862567 -38.23777534 486.00862567 -38.24074623 487.54473975 C-38.27179259 503.81181474 -38.28875423 520.07887561 -38.30053797 536.34597465 C-38.31293589 553.02953743 -38.34040648 569.71302593 -38.38195682 586.39654183 C-38.40713122 596.69651553 -38.42045816 606.99636611 -38.41877332 617.29637101 C-38.41874364 624.35330992 -38.43331499 631.41012314 -38.45950803 638.46701309 C-38.47419916 642.54242342 -38.48231855 646.617576 -38.47314644 650.69300842 C-38.46489704 654.42140192 -38.47490972 658.14927615 -38.49968037 661.87759236 C-38.50810725 663.87087554 -38.49678372 665.8642117 -38.4848454 667.85747695 C-38.49629299 669.03586206 -38.50774058 670.21424716 -38.51953506 671.42834091 C-38.52105395 672.44751028 -38.52257283 673.46667964 -38.52413774 674.51673293 C-39.16321511 677.88383264 -40.36694522 679.0734284 -43.02734375 681.16796875 C-45.52579594 681.66854 -45.52579594 681.66854 -48.38551331 681.66917419 C-49.47210236 681.67900833 -50.55869141 681.68884247 -51.6782074 681.69897461 C-53.45893394 681.68447266 -53.45893394 681.68447266 -55.27563477 681.66967773 C-56.5296106 681.67508072 -57.78358643 681.6804837 -59.07556152 681.68605042 C-62.51171595 681.69641573 -65.94690775 681.68883509 -69.38297772 681.6723392 C-72.97838053 681.6584871 -76.57375433 681.66494884 -80.16917419 681.66847229 C-86.20588244 681.67117395 -92.24239181 681.65770157 -98.27905273 681.63452148 C-105.26035372 681.60789982 -112.24132242 681.60616854 -119.22265679 681.61790985 C-125.93747689 681.62868422 -132.65217668 681.62250407 -139.36698723 681.60835457 C-142.22540057 681.60259297 -145.08372593 681.60267874 -147.94214058 681.60741997 C-151.93103769 681.6130728 -155.91960143 681.59388375 -159.90844727 681.57202148 C-161.09762253 681.57652313 -162.28679779 681.58102478 -163.51200867 681.58566284 C-164.59577789 681.57575821 -165.67954712 681.56585358 -166.79615784 681.5556488 C-167.73948754 681.55321891 -168.68281725 681.55078901 -169.6547327 681.54828548 C-172.56990513 681.08099909 -173.2664249 680.5080486 -175.02734375 678.16796875 C-175.40635127 675.6345194 -175.40635127 675.6345194 -175.41210461 672.53577137 C-175.42156115 671.35589392 -175.43101769 670.17601646 -175.44076079 668.96038514 C-175.43591322 667.65787409 -175.43106564 666.35536304 -175.42607117 665.01338196 C-175.43150733 663.6207295 -175.43825751 662.22808164 -175.44621307 660.83544129 C-175.4643017 656.99983553 -175.46367363 653.16442275 -175.4600836 649.32878435 C-175.45946152 645.19584203 -175.47606324 641.06296547 -175.49060059 636.93005371 C-175.51342743 629.7666151 -175.52527872 622.60322526 -175.52972984 615.43975258 C-175.53618124 605.08251602 -175.55910075 594.72536775 -175.58607314 584.36816671 C-175.62938252 567.56536247 -175.65932554 550.76256195 -175.6809082 533.9597168 C-175.70190547 517.63482845 -175.7291696 501.30997047 -175.76489258 484.98510742 C-175.7670914 483.97927808 -175.76929023 482.97344874 -175.77155568 481.93713973 C-175.78262502 476.89131939 -175.79381789 471.84549933 -175.80507219 466.7996794 C-175.89831605 424.92246918 -175.96988675 383.04524238 -176.02734375 341.16796875 C-178.91208189 339.72559968 -181.42500822 340.01925024 -184.6484375 339.99438477 C-185.32826691 339.98769775 -186.00809631 339.98101074 -186.70852661 339.97412109 C-188.18612876 339.96006286 -189.66375274 339.94817127 -191.14138794 339.93817329 C-193.47772165 339.92178467 -195.81389304 339.89854929 -198.15014648 339.87327576 C-204.79304956 339.80243052 -211.43601799 339.74228996 -218.07910156 339.69116211 C-222.14042282 339.65942435 -226.20155625 339.61816541 -230.26272583 339.57096672 C-231.81288282 339.55491857 -233.36308308 339.54261005 -234.91329956 339.53405952 C-237.07781121 339.52194632 -239.24187857 339.49781555 -241.40625 339.47094727 C-242.63931885 339.4606398 -243.8723877 339.45033234 -245.14282227 339.43971252 C-248.02734375 339.16796875 -248.02734375 339.16796875 -250.02734375 337.16796875 C-250.27902603 335.24078369 -250.27902603 335.24078369 -250.28131104 332.84082031 C-250.28695068 331.93223267 -250.29259033 331.02364502 -250.29840088 330.08752441 C-250.29435242 329.08797729 -250.29030396 328.08843018 -250.28613281 327.05859375 C-250.28963745 326.00812866 -250.29314209 324.95766357 -250.29675293 323.87536621 C-250.30558354 320.3895006 -250.29971634 316.90383656 -250.29296875 313.41796875 C-250.29431502 311.00423137 -250.29625522 308.59049426 -250.29876709 306.17675781 C-250.30172016 301.112604 -250.29741481 296.04852064 -250.28808594 290.984375 C-250.27669136 284.48051344 -250.28324985 277.97681693 -250.29523087 271.47296143 C-250.30244451 266.48712919 -250.30016381 261.50133633 -250.29497528 256.51550293 C-250.29363741 254.11682109 -250.29529127 251.71813572 -250.29993439 249.31945801 C-250.30499145 245.9719897 -250.29730081 242.62479182 -250.28613281 239.27734375 C-250.29018127 238.27779663 -250.29422974 237.27824951 -250.29840088 236.24841309 C-250.29276123 235.33982544 -250.28712158 234.43123779 -250.28131104 233.49511719 C-250.28055698 232.70312927 -250.27980293 231.91114136 -250.27902603 231.09515381 C-250.02734375 229.16796875 -250.02734375 229.16796875 -248.02734375 227.16796875 C-245.14282227 226.89622498 -245.14282227 226.89622498 -241.40625 226.86499023 C-240.72642059 226.8565509 -240.04659119 226.84811157 -239.34616089 226.8394165 C-237.09404828 226.81358028 -234.84206683 226.80148508 -232.58984375 226.7890625 C-231.02806552 226.77289404 -229.46629746 226.75571473 -227.90454102 226.73756409 C-223.7888254 226.69181636 -219.67309634 226.65704342 -215.55725098 226.62536621 C-208.9687098 226.57354801 -202.38031811 226.50842364 -195.79196167 226.43715096 C-193.48640257 226.4142764 -191.1808625 226.3980313 -188.87524414 226.38243103 C-187.46630647 226.36902609 -186.05737078 226.35541144 -184.6484375 226.34155273 C-182.79883423 226.32728493 -182.79883423 226.32728493 -180.91186523 226.31272888 C-178.08567439 226.36455947 -178.08567439 226.36455947 -176.02734375 225.16796875 C-176.0192569 224.26104279 -176.01117004 223.35411682 -176.00283813 222.41970825 C-175.92391162 213.74517641 -175.83635474 205.07077962 -175.73981667 196.39642525 C-175.69050682 191.9400944 -175.64418968 187.48378018 -175.60546875 183.02734375 C-175.30536863 148.96655916 -175.30536863 148.96655916 -174.125 133.42578125 C-174.05048615 132.44263947 -173.97597229 131.45949768 -173.89920044 130.44656372 C-171.85410788 106.80726867 -165.80447494 81.39365175 -153.02734375 61.16796875 C-152.65770508 60.58112305 -152.28806641 59.99427734 -151.90722656 59.38964844 C-135.98736482 34.6538768 -111.80843939 18.91276759 -84.02734375 10.16796875 C-83.38700195 9.96075195 -82.74666016 9.75353516 -82.08691406 9.54003906 C-72.51598039 6.48233623 -62.88769977 4.47680067 -52.96484375 2.91796875 C-51.9377832 2.75482178 -50.91072266 2.5916748 -49.85253906 2.42358398 C-33.31753196 -0.01513488 -16.67371196 0.005881 0 0 Z " fill="#FEFEFE" transform="translate(673.02734375,267.83203125)"/>
</svg>
